<svg width="40" height="40" viewBox="0 0 40 40" fill="none" xmlns="http://www.w3.org/2000/svg">
<rect x="0.5" y="0.5" width="39" height="39" rx="9.5" stroke="#111111" stroke-opacity="0.1"/>
<path d="M31 13.9238C30.2563 14.25 29.4637 14.4662 28.6375 14.5712C29.4875 14.0638 30.1363 13.2662 30.4412 12.305C29.6488 12.7775 28.7738 13.1113 27.8412 13.2975C27.0887 12.4963 26.0162 12 24.8462 12C22.5763 12 20.7487 13.8425 20.7487 16.1013C20.7487 16.4262 20.7762 16.7387 20.8438 17.0362C17.435 16.87 14.4188 15.2363 12.3925 12.7475C12.0387 13.3613 11.8313 14.0638 11.8313 14.82C11.8313 16.24 12.5625 17.4987 13.6525 18.2275C12.9937 18.215 12.3475 18.0238 11.8 17.7225C11.8 17.735 11.8 17.7512 11.8 17.7675C11.8 19.76 13.2212 21.415 15.085 21.7962C14.7512 21.8875 14.3875 21.9312 14.01 21.9312C13.7475 21.9312 13.4825 21.9163 13.2337 21.8612C13.765 23.485 15.2725 24.6788 17.065 24.7175C15.67 25.8088 13.8988 26.4662 11.9813 26.4662C11.645 26.4662 11.3225 26.4513 11 26.41C12.8162 27.5813 14.9688 28.25 17.29 28.25C24.835 28.25 28.96 22 28.96 16.5825C28.96 16.4012 28.9538 16.2263 28.945 16.0525C29.7588 15.475 30.4425 14.7538 31 13.9238Z" fill="#111111"/>
</svg>
